<mxfile host="app.diagrams.net" modified="2023-12-25T18:24:17.633Z" agent="Mozilla/5.0 (Windows NT 10.0; Win64; x64) AppleWebKit/537.36 (KHTML, like Gecko) Chrome/120.0.0.0 Safari/537.36" etag="Lui1rmDNeQ0aQlTOswnU" version="22.1.11" type="device">
  <diagram name="Page-1" id="L3eG1nAHi2GRUI85ljL_">
    <mxGraphModel dx="600" dy="318" grid="1" gridSize="10" guides="1" tooltips="1" connect="1" arrows="1" fold="1" page="1" pageScale="1" pageWidth="850" pageHeight="1100" math="1" shadow="0">
      <root>
        <mxCell id="0" />
        <mxCell id="1" parent="0" />
        <mxCell id="xx7SEzOR2n9m0VS-8ozK-138" value="" style="endArrow=none;html=1;rounded=0;labelBackgroundColor=default;strokeColor=default;align=center;verticalAlign=middle;fontFamily=Helvetica;fontSize=11;fontColor=default;shape=connector;curved=1;strokeWidth=3;" parent="1" edge="1">
          <mxGeometry width="50" height="50" relative="1" as="geometry">
            <mxPoint x="670" y="390" as="sourcePoint" />
            <mxPoint x="610" y="290" as="targetPoint" />
          </mxGeometry>
        </mxCell>
        <mxCell id="xx7SEzOR2n9m0VS-8ozK-1" value="" style="rounded=0;whiteSpace=wrap;html=1;rotation=60;noLabel=0;allowArrows=1;" parent="1" vertex="1">
          <mxGeometry x="262.99" y="237.5" width="120" height="90" as="geometry" />
        </mxCell>
        <mxCell id="xx7SEzOR2n9m0VS-8ozK-2" value="" style="rounded=1;whiteSpace=wrap;html=1;rotation=25;fillColor=#1ba1e2;fontColor=#ffffff;strokeColor=#006EAF;" parent="1" vertex="1">
          <mxGeometry x="232" y="248" width="40" height="10" as="geometry" />
        </mxCell>
        <mxCell id="xx7SEzOR2n9m0VS-8ozK-3" value="" style="rounded=1;whiteSpace=wrap;html=1;rotation=25;fillColor=#1ba1e2;fontColor=#ffffff;strokeColor=#006EAF;" parent="1" vertex="1">
          <mxGeometry x="311" y="203" width="40" height="10" as="geometry" />
        </mxCell>
        <mxCell id="xx7SEzOR2n9m0VS-8ozK-4" value="" style="rounded=1;whiteSpace=wrap;html=1;rotation=60;fillColor=#1ba1e2;fontColor=#ffffff;strokeColor=#006EAF;" parent="1" vertex="1">
          <mxGeometry x="293" y="350" width="40" height="10" as="geometry" />
        </mxCell>
        <mxCell id="xx7SEzOR2n9m0VS-8ozK-10" value="" style="rounded=1;whiteSpace=wrap;html=1;rotation=60;fillColor=#1ba1e2;fontColor=#ffffff;strokeColor=#006EAF;" parent="1" vertex="1">
          <mxGeometry x="372" y="308" width="40" height="10" as="geometry" />
        </mxCell>
        <mxCell id="xx7SEzOR2n9m0VS-8ozK-14" value="" style="endArrow=none;dashed=1;html=1;strokeWidth=1;rounded=0;exitX=0;exitY=1;exitDx=0;exitDy=0;" parent="1" source="xx7SEzOR2n9m0VS-8ozK-1" edge="1">
          <mxGeometry width="50" height="50" relative="1" as="geometry">
            <mxPoint x="200" y="250" as="sourcePoint" />
            <mxPoint x="231" y="218" as="targetPoint" />
          </mxGeometry>
        </mxCell>
        <mxCell id="xx7SEzOR2n9m0VS-8ozK-26" value="" style="endArrow=classic;html=1;rounded=0;fillColor=#e3c800;strokeColor=#B09500;" parent="1" edge="1">
          <mxGeometry width="50" height="50" relative="1" as="geometry">
            <mxPoint x="319.7207121275097" y="275.8820148797682" as="sourcePoint" />
            <mxPoint x="303" y="247" as="targetPoint" />
          </mxGeometry>
        </mxCell>
        <mxCell id="xx7SEzOR2n9m0VS-8ozK-27" value="" style="endArrow=classic;html=1;rounded=0;fillColor=#e3c800;strokeColor=#B09500;" parent="1" edge="1">
          <mxGeometry width="50" height="50" relative="1" as="geometry">
            <mxPoint x="317.32659379627046" y="284.6899577068403" as="sourcePoint" />
            <mxPoint x="290" y="300" as="targetPoint" />
          </mxGeometry>
        </mxCell>
        <mxCell id="xx7SEzOR2n9m0VS-8ozK-28" value="" style="endArrow=classic;html=1;rounded=0;exitX=0;exitY=0.5;exitDx=0;exitDy=0;strokeColor=#CC0000;" parent="1" source="xx7SEzOR2n9m0VS-8ozK-2" edge="1">
          <mxGeometry width="50" height="50" relative="1" as="geometry">
            <mxPoint x="150" y="253" as="sourcePoint" />
            <mxPoint x="200" y="230" as="targetPoint" />
          </mxGeometry>
        </mxCell>
        <mxCell id="xx7SEzOR2n9m0VS-8ozK-30" value="" style="endArrow=classic;html=1;rounded=0;exitX=0;exitY=0.5;exitDx=0;exitDy=0;strokeColor=#CC0000;" parent="1" source="xx7SEzOR2n9m0VS-8ozK-3" edge="1">
          <mxGeometry width="50" height="50" relative="1" as="geometry">
            <mxPoint x="316.49" y="203" as="sourcePoint" />
            <mxPoint x="280.49" y="182" as="targetPoint" />
          </mxGeometry>
        </mxCell>
        <mxCell id="xx7SEzOR2n9m0VS-8ozK-31" value="" style="endArrow=none;dashed=1;html=1;strokeWidth=1;rounded=0;exitX=0;exitY=1;exitDx=0;exitDy=0;" parent="1" edge="1">
          <mxGeometry width="50" height="50" relative="1" as="geometry">
            <mxPoint x="333" y="209" as="sourcePoint" />
            <mxPoint x="309" y="173" as="targetPoint" />
          </mxGeometry>
        </mxCell>
        <mxCell id="xx7SEzOR2n9m0VS-8ozK-32" value="" style="endArrow=classic;html=1;rounded=0;exitX=0.5;exitY=1;exitDx=0;exitDy=0;strokeColor=#CC0000;" parent="1" source="xx7SEzOR2n9m0VS-8ozK-2" edge="1">
          <mxGeometry width="50" height="50" relative="1" as="geometry">
            <mxPoint x="160" y="360" as="sourcePoint" />
            <mxPoint x="238" y="290" as="targetPoint" />
          </mxGeometry>
        </mxCell>
        <mxCell id="xx7SEzOR2n9m0VS-8ozK-33" value="" style="endArrow=classic;html=1;rounded=0;exitX=0.5;exitY=1;exitDx=0;exitDy=0;strokeColor=#CC0000;" parent="1" source="xx7SEzOR2n9m0VS-8ozK-3" edge="1">
          <mxGeometry width="50" height="50" relative="1" as="geometry">
            <mxPoint x="330" y="220" as="sourcePoint" />
            <mxPoint x="318" y="242" as="targetPoint" />
          </mxGeometry>
        </mxCell>
        <mxCell id="xx7SEzOR2n9m0VS-8ozK-34" value="" style="endArrow=classic;html=1;rounded=0;entryX=0.551;entryY=1.001;entryDx=0;entryDy=0;entryPerimeter=0;strokeColor=#CC0000;" parent="1" source="xx7SEzOR2n9m0VS-8ozK-4" target="xx7SEzOR2n9m0VS-8ozK-1" edge="1">
          <mxGeometry width="50" height="50" relative="1" as="geometry">
            <mxPoint x="210" y="400" as="sourcePoint" />
            <mxPoint x="260" y="350" as="targetPoint" />
          </mxGeometry>
        </mxCell>
        <mxCell id="xx7SEzOR2n9m0VS-8ozK-35" value="" style="endArrow=classic;html=1;rounded=0;exitX=0;exitY=0.5;exitDx=0;exitDy=0;entryX=0.608;entryY=0;entryDx=0;entryDy=0;entryPerimeter=0;strokeColor=#CC0000;" parent="1" source="xx7SEzOR2n9m0VS-8ozK-10" target="xx7SEzOR2n9m0VS-8ozK-1" edge="1">
          <mxGeometry width="50" height="50" relative="1" as="geometry">
            <mxPoint x="270" y="278" as="sourcePoint" />
            <mxPoint x="258" y="310" as="targetPoint" />
          </mxGeometry>
        </mxCell>
        <mxCell id="xx7SEzOR2n9m0VS-8ozK-36" value="" style="endArrow=classic;html=1;rounded=0;exitX=0.5;exitY=1;exitDx=0;exitDy=0;strokeColor=#CC0000;" parent="1" source="xx7SEzOR2n9m0VS-8ozK-4" edge="1">
          <mxGeometry width="50" height="50" relative="1" as="geometry">
            <mxPoint x="250" y="430" as="sourcePoint" />
            <mxPoint x="290" y="370" as="targetPoint" />
          </mxGeometry>
        </mxCell>
        <mxCell id="xx7SEzOR2n9m0VS-8ozK-37" value="" style="endArrow=classic;html=1;rounded=0;exitX=0.464;exitY=1.044;exitDx=0;exitDy=0;exitPerimeter=0;entryX=1;entryY=0.348;entryDx=0;entryDy=0;entryPerimeter=0;strokeColor=#CC0000;" parent="1" source="xx7SEzOR2n9m0VS-8ozK-10" target="xx7SEzOR2n9m0VS-8ozK-1" edge="1">
          <mxGeometry width="50" height="50" relative="1" as="geometry">
            <mxPoint x="391" y="318" as="sourcePoint" />
            <mxPoint x="372" y="330" as="targetPoint" />
          </mxGeometry>
        </mxCell>
        <mxCell id="xx7SEzOR2n9m0VS-8ozK-39" value="" style="endArrow=none;dashed=1;html=1;strokeWidth=1;rounded=0;entryX=0.474;entryY=0.572;entryDx=0;entryDy=0;entryPerimeter=0;" parent="1" target="xx7SEzOR2n9m0VS-8ozK-38" edge="1">
          <mxGeometry width="50" height="50" relative="1" as="geometry">
            <mxPoint x="360" y="283" as="sourcePoint" />
            <mxPoint x="391" y="230" as="targetPoint" />
          </mxGeometry>
        </mxCell>
        <mxCell id="xx7SEzOR2n9m0VS-8ozK-49" value="COG" style="text;html=1;align=center;verticalAlign=middle;resizable=0;points=[];autosize=1;strokeColor=none;fillColor=none;fontSize=11;fontFamily=Helvetica;fontColor=default;" parent="1" vertex="1">
          <mxGeometry x="299" y="282" width="50" height="30" as="geometry" />
        </mxCell>
        <mxCell id="xx7SEzOR2n9m0VS-8ozK-50" value="" style="verticalLabelPosition=bottom;verticalAlign=top;html=1;shape=mxgraph.basic.arc;startAngle=0.913738135787909;endAngle=0.27020834710524794;fontFamily=Helvetica;fontSize=11;fontColor=#ffffff;fillColor=#0050ef;strokeColor=#001DBC;" parent="1" vertex="1">
          <mxGeometry x="303.5" y="261" width="39" height="38" as="geometry" />
        </mxCell>
        <mxCell id="xx7SEzOR2n9m0VS-8ozK-57" value="" style="verticalLabelPosition=bottom;verticalAlign=top;html=1;shape=mxgraph.basic.arc;startAngle=0.8231202729661385;endAngle=0.9294230052529209;fontFamily=Helvetica;fontSize=11;fontColor=#ffffff;fillColor=#0050ef;strokeColor=#001DBC;" parent="1" vertex="1">
          <mxGeometry x="300" y="180" width="52.5" height="51.5" as="geometry" />
        </mxCell>
        <mxCell id="xx7SEzOR2n9m0VS-8ozK-61" value="" style="verticalLabelPosition=bottom;verticalAlign=top;html=1;shape=mxgraph.basic.arc;startAngle=0.8231202729661385;endAngle=0.9416702249044805;fontFamily=Helvetica;fontSize=11;fontColor=#ffffff;fillColor=#0050ef;strokeColor=#001DBC;" parent="1" vertex="1">
          <mxGeometry x="219.5" y="225.25" width="52.5" height="51.5" as="geometry" />
        </mxCell>
        <mxCell id="xx7SEzOR2n9m0VS-8ozK-62" value="$$\psi$$" style="text;html=1;align=center;verticalAlign=middle;resizable=0;points=[];autosize=1;strokeColor=none;fillColor=none;fontSize=11;fontFamily=Helvetica;fontColor=default;" parent="1" vertex="1">
          <mxGeometry x="299" y="241.5" width="70" height="30" as="geometry" />
        </mxCell>
        <mxCell id="xx7SEzOR2n9m0VS-8ozK-64" value="$$\delta$$" style="text;html=1;align=center;verticalAlign=middle;resizable=0;points=[];autosize=1;strokeColor=none;fillColor=none;fontSize=11;fontFamily=Helvetica;fontColor=default;" parent="1" vertex="1">
          <mxGeometry x="187" y="213" width="70" height="30" as="geometry" />
        </mxCell>
        <mxCell id="xx7SEzOR2n9m0VS-8ozK-65" value="$$\delta$$" style="text;html=1;align=center;verticalAlign=middle;resizable=0;points=[];autosize=1;strokeColor=none;fillColor=none;fontSize=11;fontFamily=Helvetica;fontColor=default;" parent="1" vertex="1">
          <mxGeometry x="266" y="169" width="70" height="30" as="geometry" />
        </mxCell>
        <mxCell id="xx7SEzOR2n9m0VS-8ozK-66" value="$$F_{fly}$$" style="text;html=1;align=center;verticalAlign=middle;resizable=0;points=[];autosize=1;strokeColor=none;fillColor=none;fontSize=11;fontFamily=Helvetica;fontColor=default;" parent="1" vertex="1">
          <mxGeometry x="192" y="278" width="80" height="30" as="geometry" />
        </mxCell>
        <mxCell id="xx7SEzOR2n9m0VS-8ozK-67" value="$$F_{flx}$$" style="text;html=1;align=center;verticalAlign=middle;resizable=0;points=[];autosize=1;strokeColor=none;fillColor=none;fontSize=11;fontFamily=Helvetica;fontColor=default;" parent="1" vertex="1">
          <mxGeometry x="165" y="226" width="80" height="30" as="geometry" />
        </mxCell>
        <mxCell id="xx7SEzOR2n9m0VS-8ozK-68" value="$$F_{frx}$$" style="text;html=1;align=center;verticalAlign=middle;resizable=0;points=[];autosize=1;strokeColor=none;fillColor=none;fontSize=11;fontFamily=Helvetica;fontColor=default;" parent="1" vertex="1">
          <mxGeometry x="244" y="180" width="80" height="30" as="geometry" />
        </mxCell>
        <mxCell id="xx7SEzOR2n9m0VS-8ozK-69" value="$$F_{fry}$$" style="text;html=1;align=center;verticalAlign=middle;resizable=0;points=[];autosize=1;strokeColor=none;fillColor=none;fontSize=11;fontFamily=Helvetica;fontColor=default;" parent="1" vertex="1">
          <mxGeometry x="299" y="211.5" width="80" height="30" as="geometry" />
        </mxCell>
        <mxCell id="xx7SEzOR2n9m0VS-8ozK-70" value="$$x$$" style="text;html=1;align=center;verticalAlign=middle;resizable=0;points=[];autosize=1;strokeColor=none;fillColor=none;fontSize=11;fontFamily=Helvetica;fontColor=default;" parent="1" vertex="1">
          <mxGeometry x="286" y="230.5" width="50" height="30" as="geometry" />
        </mxCell>
        <mxCell id="xx7SEzOR2n9m0VS-8ozK-71" value="$$y$$" style="text;html=1;align=center;verticalAlign=middle;resizable=0;points=[];autosize=1;strokeColor=none;fillColor=none;fontSize=11;fontFamily=Helvetica;fontColor=default;" parent="1" vertex="1">
          <mxGeometry x="262.99" y="278" width="50" height="30" as="geometry" />
        </mxCell>
        <mxCell id="xx7SEzOR2n9m0VS-8ozK-72" value="$$F_{rly}$$" style="text;html=1;align=center;verticalAlign=middle;resizable=0;points=[];autosize=1;strokeColor=none;fillColor=none;fontSize=11;fontFamily=Helvetica;fontColor=default;movable=0;rotatable=0;deletable=0;editable=0;locked=1;connectable=0;" parent="1" vertex="1">
          <mxGeometry x="247.99" y="360" width="80" height="30" as="geometry" />
        </mxCell>
        <mxCell id="xx7SEzOR2n9m0VS-8ozK-73" value="$$F_{rry}$$" style="text;html=1;align=center;verticalAlign=middle;resizable=0;points=[];autosize=1;strokeColor=none;fillColor=none;fontSize=11;fontFamily=Helvetica;fontColor=default;movable=0;rotatable=0;deletable=0;editable=0;locked=1;connectable=0;" parent="1" vertex="1">
          <mxGeometry x="349" y="318" width="80" height="30" as="geometry" />
        </mxCell>
        <mxCell id="xx7SEzOR2n9m0VS-8ozK-74" value="$$F_{rrx}$$" style="text;html=1;align=center;verticalAlign=middle;resizable=0;points=[];autosize=1;strokeColor=none;fillColor=none;fontSize=11;fontFamily=Helvetica;fontColor=default;" parent="1" vertex="1">
          <mxGeometry x="332" y="271.5" width="80" height="30" as="geometry" />
        </mxCell>
        <mxCell id="xx7SEzOR2n9m0VS-8ozK-75" value="$$F_{rlx}$$" style="text;html=1;align=center;verticalAlign=middle;resizable=0;points=[];autosize=1;strokeColor=none;fillColor=none;fontSize=11;fontFamily=Helvetica;fontColor=default;" parent="1" vertex="1">
          <mxGeometry x="240" y="305.75" width="80" height="30" as="geometry" />
        </mxCell>
        <mxCell id="xx7SEzOR2n9m0VS-8ozK-76" value="" style="endArrow=classic;html=1;rounded=0;labelBackgroundColor=default;strokeColor=#005700;align=center;verticalAlign=middle;fontFamily=Helvetica;fontSize=11;fontColor=default;shape=connector;curved=1;exitX=0.514;exitY=0.491;exitDx=0;exitDy=0;exitPerimeter=0;fillColor=#008a00;" parent="1" source="xx7SEzOR2n9m0VS-8ozK-38" edge="1">
          <mxGeometry width="50" height="50" relative="1" as="geometry">
            <mxPoint x="130" y="320" as="sourcePoint" />
            <mxPoint x="280" y="250" as="targetPoint" />
          </mxGeometry>
        </mxCell>
        <mxCell id="xx7SEzOR2n9m0VS-8ozK-77" value="$$v_G$$" style="text;html=1;align=center;verticalAlign=middle;resizable=0;points=[];autosize=1;strokeColor=none;fillColor=none;fontSize=11;fontFamily=Helvetica;fontColor=default;" parent="1" vertex="1">
          <mxGeometry x="249" y="228" width="70" height="30" as="geometry" />
        </mxCell>
        <mxCell id="xx7SEzOR2n9m0VS-8ozK-80" value="&lt;span style=&quot;color: rgb(0, 0, 0); font-family: Helvetica; font-size: 11px; font-style: normal; font-variant-ligatures: normal; font-variant-caps: normal; font-weight: 400; letter-spacing: normal; orphans: 2; text-align: center; text-indent: 0px; text-transform: none; widows: 2; word-spacing: 0px; -webkit-text-stroke-width: 0px; background-color: rgb(251, 251, 251); text-decoration-thickness: initial; text-decoration-style: initial; text-decoration-color: initial; float: none; display: inline !important;&quot;&gt;$$w$$&lt;/span&gt;" style="text;whiteSpace=wrap;html=1;fontSize=11;fontFamily=Helvetica;fontColor=default;" parent="1" vertex="1">
          <mxGeometry x="351" y="320" width="25" height="40" as="geometry" />
        </mxCell>
        <mxCell id="xx7SEzOR2n9m0VS-8ozK-81" value="" style="endArrow=none;html=1;rounded=0;labelBackgroundColor=default;strokeColor=default;align=center;verticalAlign=middle;fontFamily=Helvetica;fontSize=11;fontColor=default;shape=connector;curved=1;exitX=0.494;exitY=0.47;exitDx=0;exitDy=0;exitPerimeter=0;dashed=1;" parent="1" source="xx7SEzOR2n9m0VS-8ozK-38" edge="1">
          <mxGeometry width="50" height="50" relative="1" as="geometry">
            <mxPoint x="370" y="310" as="sourcePoint" />
            <mxPoint x="390" y="240" as="targetPoint" />
          </mxGeometry>
        </mxCell>
        <mxCell id="xx7SEzOR2n9m0VS-8ozK-83" value="" style="endArrow=none;dashed=1;html=1;rounded=0;labelBackgroundColor=default;strokeColor=default;align=center;verticalAlign=middle;fontFamily=Helvetica;fontSize=11;fontColor=default;shape=connector;curved=1;" parent="1" edge="1">
          <mxGeometry width="50" height="50" relative="1" as="geometry">
            <mxPoint x="332" y="208" as="sourcePoint" />
            <mxPoint x="357" y="193" as="targetPoint" />
          </mxGeometry>
        </mxCell>
        <mxCell id="xx7SEzOR2n9m0VS-8ozK-85" value="" style="endArrow=none;dashed=1;html=1;rounded=0;labelBackgroundColor=default;strokeColor=default;align=center;verticalAlign=middle;fontFamily=Helvetica;fontSize=11;fontColor=default;shape=connector;curved=1;" parent="1" edge="1">
          <mxGeometry width="50" height="50" relative="1" as="geometry">
            <mxPoint x="391" y="312" as="sourcePoint" />
            <mxPoint x="416" y="297" as="targetPoint" />
          </mxGeometry>
        </mxCell>
        <mxCell id="xx7SEzOR2n9m0VS-8ozK-88" value="" style="endArrow=classic;startArrow=classic;html=1;rounded=0;labelBackgroundColor=default;strokeColor=default;align=center;verticalAlign=middle;fontFamily=Helvetica;fontSize=11;fontColor=default;shape=connector;curved=1;" parent="1" edge="1">
          <mxGeometry width="50" height="50" relative="1" as="geometry">
            <mxPoint x="379" y="248" as="sourcePoint" />
            <mxPoint x="349" y="198" as="targetPoint" />
          </mxGeometry>
        </mxCell>
        <mxCell id="xx7SEzOR2n9m0VS-8ozK-89" value="" style="endArrow=classic;startArrow=classic;html=1;rounded=0;labelBackgroundColor=default;strokeColor=default;align=center;verticalAlign=middle;fontFamily=Helvetica;fontSize=11;fontColor=default;shape=connector;curved=1;" parent="1" edge="1">
          <mxGeometry width="50" height="50" relative="1" as="geometry">
            <mxPoint x="411" y="302" as="sourcePoint" />
            <mxPoint x="379" y="248" as="targetPoint" />
          </mxGeometry>
        </mxCell>
        <mxCell id="xx7SEzOR2n9m0VS-8ozK-90" value="&lt;span style=&quot;color: rgb(0, 0, 0); font-family: Helvetica; font-size: 11px; font-style: normal; font-variant-ligatures: normal; font-variant-caps: normal; font-weight: 400; letter-spacing: normal; orphans: 2; text-align: center; text-indent: 0px; text-transform: none; widows: 2; word-spacing: 0px; -webkit-text-stroke-width: 0px; background-color: rgb(251, 251, 251); text-decoration-thickness: initial; text-decoration-style: initial; text-decoration-color: initial; float: none; display: inline !important;&quot;&gt;$$l_f$$&lt;/span&gt;" style="text;whiteSpace=wrap;html=1;fontSize=11;fontFamily=Helvetica;fontColor=default;" parent="1" vertex="1">
          <mxGeometry x="361" y="191.5" width="25" height="40" as="geometry" />
        </mxCell>
        <mxCell id="xx7SEzOR2n9m0VS-8ozK-91" value="&lt;span style=&quot;color: rgb(0, 0, 0); font-family: Helvetica; font-size: 11px; font-style: normal; font-variant-ligatures: normal; font-variant-caps: normal; font-weight: 400; letter-spacing: normal; orphans: 2; text-align: center; text-indent: 0px; text-transform: none; widows: 2; word-spacing: 0px; -webkit-text-stroke-width: 0px; background-color: rgb(251, 251, 251); text-decoration-thickness: initial; text-decoration-style: initial; text-decoration-color: initial; float: none; display: inline !important;&quot;&gt;$$l_r$$&lt;/span&gt;" style="text;whiteSpace=wrap;html=1;fontSize=11;fontFamily=Helvetica;fontColor=default;" parent="1" vertex="1">
          <mxGeometry x="400" y="244" width="25" height="40" as="geometry" />
        </mxCell>
        <mxCell id="xx7SEzOR2n9m0VS-8ozK-93" value="" style="rounded=1;whiteSpace=wrap;html=1;rotation=25;fillColor=#1ba1e2;fontColor=#ffffff;strokeColor=#006EAF;" parent="1" vertex="1">
          <mxGeometry x="590" y="285.25" width="40" height="10" as="geometry" />
        </mxCell>
        <mxCell id="xx7SEzOR2n9m0VS-8ozK-95" value="" style="rounded=1;whiteSpace=wrap;html=1;rotation=60;fillColor=#1ba1e2;fontColor=#ffffff;strokeColor=#006EAF;" parent="1" vertex="1">
          <mxGeometry x="649" y="383.83" width="40" height="10" as="geometry" />
        </mxCell>
        <mxCell id="xx7SEzOR2n9m0VS-8ozK-98" value="" style="endArrow=classic;html=1;rounded=0;fillColor=#e3c800;strokeColor=#B09500;" parent="1" edge="1">
          <mxGeometry width="50" height="50" relative="1" as="geometry">
            <mxPoint x="637.7207121275097" y="336.8820148797682" as="sourcePoint" />
            <mxPoint x="621" y="308" as="targetPoint" />
          </mxGeometry>
        </mxCell>
        <mxCell id="xx7SEzOR2n9m0VS-8ozK-99" value="" style="endArrow=classic;html=1;rounded=0;fillColor=#e3c800;strokeColor=#B09500;" parent="1" edge="1">
          <mxGeometry width="50" height="50" relative="1" as="geometry">
            <mxPoint x="634.3265937962705" y="345.6899577068403" as="sourcePoint" />
            <mxPoint x="607" y="361" as="targetPoint" />
          </mxGeometry>
        </mxCell>
        <mxCell id="xx7SEzOR2n9m0VS-8ozK-100" value="" style="endArrow=classic;html=1;rounded=0;exitX=0;exitY=0.5;exitDx=0;exitDy=0;strokeColor=#CC0000;entryX=1.031;entryY=0.615;entryDx=0;entryDy=0;entryPerimeter=0;" parent="1" source="xx7SEzOR2n9m0VS-8ozK-93" edge="1">
          <mxGeometry width="50" height="50" relative="1" as="geometry">
            <mxPoint x="508" y="290.25" as="sourcePoint" />
            <mxPoint x="546.4799999999999" y="262.45" as="targetPoint" />
          </mxGeometry>
        </mxCell>
        <mxCell id="xx7SEzOR2n9m0VS-8ozK-103" value="" style="endArrow=classic;html=1;rounded=0;exitX=0.5;exitY=1;exitDx=0;exitDy=0;strokeColor=#CC0000;" parent="1" source="xx7SEzOR2n9m0VS-8ozK-93" edge="1">
          <mxGeometry width="50" height="50" relative="1" as="geometry">
            <mxPoint x="518" y="397.25" as="sourcePoint" />
            <mxPoint x="596" y="327.25" as="targetPoint" />
          </mxGeometry>
        </mxCell>
        <mxCell id="xx7SEzOR2n9m0VS-8ozK-105" value="" style="endArrow=classic;html=1;rounded=0;strokeColor=#CC0000;" parent="1" source="xx7SEzOR2n9m0VS-8ozK-95" edge="1">
          <mxGeometry width="50" height="50" relative="1" as="geometry">
            <mxPoint x="566" y="433.83" as="sourcePoint" />
            <mxPoint x="647" y="352" as="targetPoint" />
          </mxGeometry>
        </mxCell>
        <mxCell id="xx7SEzOR2n9m0VS-8ozK-107" value="" style="endArrow=classic;html=1;rounded=0;exitX=0.5;exitY=1;exitDx=0;exitDy=0;strokeColor=#CC0000;" parent="1" source="xx7SEzOR2n9m0VS-8ozK-95" edge="1">
          <mxGeometry width="50" height="50" relative="1" as="geometry">
            <mxPoint x="606" y="463.83" as="sourcePoint" />
            <mxPoint x="646" y="403.83" as="targetPoint" />
          </mxGeometry>
        </mxCell>
        <mxCell id="xx7SEzOR2n9m0VS-8ozK-110" value="" style="endArrow=none;dashed=1;html=1;strokeWidth=1;rounded=0;entryX=0.474;entryY=0.572;entryDx=0;entryDy=0;entryPerimeter=0;" parent="1" target="xx7SEzOR2n9m0VS-8ozK-109" edge="1">
          <mxGeometry width="50" height="50" relative="1" as="geometry">
            <mxPoint x="680" y="342" as="sourcePoint" />
            <mxPoint x="708" y="291" as="targetPoint" />
          </mxGeometry>
        </mxCell>
        <mxCell id="xx7SEzOR2n9m0VS-8ozK-112" value="" style="verticalLabelPosition=bottom;verticalAlign=top;html=1;shape=mxgraph.basic.arc;startAngle=0.913738135787909;endAngle=0.27020834710524794;fontFamily=Helvetica;fontSize=11;fontColor=#ffffff;fillColor=#0050ef;strokeColor=#001DBC;" parent="1" vertex="1">
          <mxGeometry x="620.5" y="322" width="39" height="38" as="geometry" />
        </mxCell>
        <mxCell id="xx7SEzOR2n9m0VS-8ozK-114" value="" style="verticalLabelPosition=bottom;verticalAlign=top;html=1;shape=mxgraph.basic.arc;startAngle=0.812249548254148;endAngle=0.0692271403405145;fontFamily=Helvetica;fontSize=11;fontColor=#ffffff;fillColor=#0050ef;strokeColor=#001DBC;rotation=-25;" parent="1" vertex="1">
          <mxGeometry x="557.98" y="240.23" width="48.5" height="51.5" as="geometry" />
        </mxCell>
        <mxCell id="xx7SEzOR2n9m0VS-8ozK-115" value="$$\psi$$" style="text;html=1;align=center;verticalAlign=middle;resizable=0;points=[];autosize=1;strokeColor=none;fillColor=none;fontSize=11;fontFamily=Helvetica;fontColor=default;" parent="1" vertex="1">
          <mxGeometry x="614" y="300.5" width="70" height="30" as="geometry" />
        </mxCell>
        <mxCell id="xx7SEzOR2n9m0VS-8ozK-116" value="$$\delta$$" style="text;html=1;align=center;verticalAlign=middle;resizable=0;points=[];autosize=1;strokeColor=none;fillColor=none;fontSize=11;fontFamily=Helvetica;fontColor=default;" parent="1" vertex="1">
          <mxGeometry x="520" y="231.5" width="70" height="30" as="geometry" />
        </mxCell>
        <mxCell id="xx7SEzOR2n9m0VS-8ozK-118" value="$$F_{fy}$$" style="text;html=1;align=center;verticalAlign=middle;resizable=0;points=[];autosize=1;strokeColor=none;fillColor=none;fontSize=11;fontFamily=Helvetica;fontColor=default;" parent="1" vertex="1">
          <mxGeometry x="544" y="312" width="80" height="30" as="geometry" />
        </mxCell>
        <mxCell id="xx7SEzOR2n9m0VS-8ozK-122" value="$$x$$" style="text;html=1;align=center;verticalAlign=middle;resizable=0;points=[];autosize=1;strokeColor=none;fillColor=none;fontSize=11;fontFamily=Helvetica;fontColor=default;" parent="1" vertex="1">
          <mxGeometry x="606" y="292" width="50" height="30" as="geometry" />
        </mxCell>
        <mxCell id="xx7SEzOR2n9m0VS-8ozK-123" value="$$y$$" style="text;html=1;align=center;verticalAlign=middle;resizable=0;points=[];autosize=1;strokeColor=none;fillColor=none;fontSize=11;fontFamily=Helvetica;fontColor=default;" parent="1" vertex="1">
          <mxGeometry x="585" y="350.5" width="50" height="30" as="geometry" />
        </mxCell>
        <mxCell id="xx7SEzOR2n9m0VS-8ozK-128" value="" style="endArrow=classic;html=1;rounded=0;labelBackgroundColor=default;strokeColor=#005700;align=center;verticalAlign=middle;fontFamily=Helvetica;fontSize=11;fontColor=default;shape=connector;curved=1;exitX=0.514;exitY=0.491;exitDx=0;exitDy=0;exitPerimeter=0;fillColor=#008a00;" parent="1" edge="1">
          <mxGeometry width="50" height="50" relative="1" as="geometry">
            <mxPoint x="639.28" y="340.31999999999994" as="sourcePoint" />
            <mxPoint x="609" y="320" as="targetPoint" />
          </mxGeometry>
        </mxCell>
        <mxCell id="xx7SEzOR2n9m0VS-8ozK-129" value="$$v_G$$" style="text;html=1;align=center;verticalAlign=middle;resizable=0;points=[];autosize=1;strokeColor=none;fillColor=none;fontSize=11;fontFamily=Helvetica;fontColor=default;" parent="1" vertex="1">
          <mxGeometry x="580" y="318" width="70" height="30" as="geometry" />
        </mxCell>
        <mxCell id="xx7SEzOR2n9m0VS-8ozK-131" value="" style="endArrow=none;html=1;rounded=0;labelBackgroundColor=default;strokeColor=default;align=center;verticalAlign=middle;fontFamily=Helvetica;fontSize=11;fontColor=default;shape=connector;curved=1;exitX=0.494;exitY=0.47;exitDx=0;exitDy=0;exitPerimeter=0;dashed=1;" parent="1" source="xx7SEzOR2n9m0VS-8ozK-109" edge="1">
          <mxGeometry width="50" height="50" relative="1" as="geometry">
            <mxPoint x="687" y="371" as="sourcePoint" />
            <mxPoint x="707" y="301" as="targetPoint" />
          </mxGeometry>
        </mxCell>
        <mxCell id="xx7SEzOR2n9m0VS-8ozK-132" value="" style="endArrow=none;dashed=1;html=1;rounded=0;labelBackgroundColor=default;strokeColor=default;align=center;verticalAlign=middle;fontFamily=Helvetica;fontSize=11;fontColor=default;shape=connector;curved=1;" parent="1" source="xx7SEzOR2n9m0VS-8ozK-93" edge="1">
          <mxGeometry width="50" height="50" relative="1" as="geometry">
            <mxPoint x="627" y="282" as="sourcePoint" />
            <mxPoint x="652" y="267" as="targetPoint" />
          </mxGeometry>
        </mxCell>
        <mxCell id="xx7SEzOR2n9m0VS-8ozK-134" value="" style="endArrow=classic;startArrow=classic;html=1;rounded=0;labelBackgroundColor=default;strokeColor=default;align=center;verticalAlign=middle;fontFamily=Helvetica;fontSize=11;fontColor=default;shape=connector;curved=1;" parent="1" edge="1">
          <mxGeometry width="50" height="50" relative="1" as="geometry">
            <mxPoint x="674" y="322" as="sourcePoint" />
            <mxPoint x="644" y="272" as="targetPoint" />
          </mxGeometry>
        </mxCell>
        <mxCell id="xx7SEzOR2n9m0VS-8ozK-135" value="" style="endArrow=classic;startArrow=classic;html=1;rounded=0;labelBackgroundColor=default;strokeColor=default;align=center;verticalAlign=middle;fontFamily=Helvetica;fontSize=11;fontColor=default;shape=connector;curved=1;" parent="1" edge="1">
          <mxGeometry width="50" height="50" relative="1" as="geometry">
            <mxPoint x="701" y="370" as="sourcePoint" />
            <mxPoint x="673" y="321" as="targetPoint" />
          </mxGeometry>
        </mxCell>
        <mxCell id="xx7SEzOR2n9m0VS-8ozK-136" value="&lt;span style=&quot;color: rgb(0, 0, 0); font-family: Helvetica; font-size: 11px; font-style: normal; font-variant-ligatures: normal; font-variant-caps: normal; font-weight: 400; letter-spacing: normal; orphans: 2; text-align: center; text-indent: 0px; text-transform: none; widows: 2; word-spacing: 0px; -webkit-text-stroke-width: 0px; background-color: rgb(251, 251, 251); text-decoration-thickness: initial; text-decoration-style: initial; text-decoration-color: initial; float: none; display: inline !important;&quot;&gt;$$l_f$$&lt;/span&gt;" style="text;whiteSpace=wrap;html=1;fontSize=11;fontFamily=Helvetica;fontColor=default;" parent="1" vertex="1">
          <mxGeometry x="656" y="265.5" width="25" height="40" as="geometry" />
        </mxCell>
        <mxCell id="xx7SEzOR2n9m0VS-8ozK-137" value="&lt;span style=&quot;color: rgb(0, 0, 0); font-family: Helvetica; font-size: 11px; font-style: normal; font-variant-ligatures: normal; font-variant-caps: normal; font-weight: 400; letter-spacing: normal; orphans: 2; text-align: center; text-indent: 0px; text-transform: none; widows: 2; word-spacing: 0px; -webkit-text-stroke-width: 0px; background-color: rgb(251, 251, 251); text-decoration-thickness: initial; text-decoration-style: initial; text-decoration-color: initial; float: none; display: inline !important;&quot;&gt;$$l_r$$&lt;/span&gt;" style="text;whiteSpace=wrap;html=1;fontSize=11;fontFamily=Helvetica;fontColor=default;" parent="1" vertex="1">
          <mxGeometry x="695" y="318" width="25" height="40" as="geometry" />
        </mxCell>
        <mxCell id="xx7SEzOR2n9m0VS-8ozK-143" value="" style="endArrow=none;dashed=1;html=1;rounded=0;labelBackgroundColor=default;strokeColor=default;align=center;verticalAlign=middle;fontFamily=Helvetica;fontSize=11;fontColor=default;shape=connector;curved=1;" parent="1" edge="1">
          <mxGeometry width="50" height="50" relative="1" as="geometry">
            <mxPoint x="674" y="385" as="sourcePoint" />
            <mxPoint x="711" y="365" as="targetPoint" />
          </mxGeometry>
        </mxCell>
        <mxCell id="xx7SEzOR2n9m0VS-8ozK-144" value="$$F_{ry}$$" style="text;html=1;align=center;verticalAlign=middle;resizable=0;points=[];autosize=1;strokeColor=none;fillColor=none;fontSize=11;fontFamily=Helvetica;fontColor=default;" parent="1" vertex="1">
          <mxGeometry x="604" y="393.83" width="80" height="30" as="geometry" />
        </mxCell>
        <mxCell id="xx7SEzOR2n9m0VS-8ozK-145" value="$$F_{rx}$$" style="text;html=1;align=center;verticalAlign=middle;resizable=0;points=[];autosize=1;strokeColor=none;fillColor=none;fontSize=11;fontFamily=Helvetica;fontColor=default;" parent="1" vertex="1">
          <mxGeometry x="600" y="350" width="80" height="30" as="geometry" />
        </mxCell>
        <mxCell id="AMix2MeKDHVCSUbpowCO-1" value="" style="endArrow=classic;html=1;rounded=0;" parent="1" edge="1">
          <mxGeometry width="50" height="50" relative="1" as="geometry">
            <mxPoint x="214.5" y="366.6" as="sourcePoint" />
            <mxPoint x="214.5" y="326.6" as="targetPoint" />
          </mxGeometry>
        </mxCell>
        <mxCell id="AMix2MeKDHVCSUbpowCO-2" value="" style="endArrow=classic;html=1;rounded=0;" parent="1" edge="1">
          <mxGeometry width="50" height="50" relative="1" as="geometry">
            <mxPoint x="214.5" y="366.6" as="sourcePoint" />
            <mxPoint x="244.5" y="366.6" as="targetPoint" />
          </mxGeometry>
        </mxCell>
        <mxCell id="AMix2MeKDHVCSUbpowCO-3" value="$$X$$" style="text;html=1;align=center;verticalAlign=middle;resizable=0;points=[];autosize=1;strokeColor=none;fillColor=none;fontSize=11;fontFamily=Helvetica;fontColor=default;" parent="1" vertex="1">
          <mxGeometry x="214.5" y="360" width="60" height="30" as="geometry" />
        </mxCell>
        <mxCell id="AMix2MeKDHVCSUbpowCO-4" value="$$Y$$" style="text;html=1;align=center;verticalAlign=middle;resizable=0;points=[];autosize=1;strokeColor=none;fillColor=none;fontSize=11;fontFamily=Helvetica;fontColor=default;" parent="1" vertex="1">
          <mxGeometry x="192" y="306.67" width="60" height="30" as="geometry" />
        </mxCell>
        <mxCell id="AMix2MeKDHVCSUbpowCO-5" value="" style="endArrow=classic;html=1;rounded=0;" parent="1" edge="1">
          <mxGeometry width="50" height="50" relative="1" as="geometry">
            <mxPoint x="570" y="400.43" as="sourcePoint" />
            <mxPoint x="570" y="360.43" as="targetPoint" />
          </mxGeometry>
        </mxCell>
        <mxCell id="AMix2MeKDHVCSUbpowCO-6" value="" style="endArrow=classic;html=1;rounded=0;" parent="1" edge="1">
          <mxGeometry width="50" height="50" relative="1" as="geometry">
            <mxPoint x="570" y="400.43" as="sourcePoint" />
            <mxPoint x="600" y="400.43" as="targetPoint" />
          </mxGeometry>
        </mxCell>
        <mxCell id="AMix2MeKDHVCSUbpowCO-7" value="$$X$$" style="text;html=1;align=center;verticalAlign=middle;resizable=0;points=[];autosize=1;strokeColor=none;fillColor=none;fontSize=11;fontFamily=Helvetica;fontColor=default;" parent="1" vertex="1">
          <mxGeometry x="570" y="393.83" width="60" height="30" as="geometry" />
        </mxCell>
        <mxCell id="AMix2MeKDHVCSUbpowCO-8" value="$$Y$$" style="text;html=1;align=center;verticalAlign=middle;resizable=0;points=[];autosize=1;strokeColor=none;fillColor=none;fontSize=11;fontFamily=Helvetica;fontColor=default;" parent="1" vertex="1">
          <mxGeometry x="547.5" y="340.5" width="60" height="30" as="geometry" />
        </mxCell>
        <mxCell id="xx7SEzOR2n9m0VS-8ozK-38" value="" style="verticalLabelPosition=bottom;verticalAlign=top;html=1;shape=mxgraph.flowchart.or;fillStyle=solid;" parent="1" vertex="1">
          <mxGeometry x="311" y="271.5" width="20" height="20" as="geometry" />
        </mxCell>
        <mxCell id="xx7SEzOR2n9m0VS-8ozK-109" value="" style="verticalLabelPosition=bottom;verticalAlign=top;html=1;shape=mxgraph.flowchart.or;fillStyle=solid;" parent="1" vertex="1">
          <mxGeometry x="630" y="330.5" width="20" height="20" as="geometry" />
        </mxCell>
        <mxCell id="DRXv_Ftm8kYpAyk2VkBo-1" value="" style="endArrow=classic;html=1;rounded=0;exitX=0.082;exitY=-0.065;exitDx=0;exitDy=0;exitPerimeter=0;strokeColor=#005700;fillColor=#008a00;" edge="1" parent="1" source="xx7SEzOR2n9m0VS-8ozK-122">
          <mxGeometry width="50" height="50" relative="1" as="geometry">
            <mxPoint x="690" y="240" as="sourcePoint" />
            <mxPoint x="570" y="250" as="targetPoint" />
          </mxGeometry>
        </mxCell>
        <mxCell id="DRXv_Ftm8kYpAyk2VkBo-2" value="" style="endArrow=none;dashed=1;html=1;strokeWidth=1;rounded=0;exitX=0.101;exitY=-0.053;exitDx=0;exitDy=0;exitPerimeter=0;" edge="1" parent="1" source="xx7SEzOR2n9m0VS-8ozK-122">
          <mxGeometry width="50" height="50" relative="1" as="geometry">
            <mxPoint x="620" y="230" as="sourcePoint" />
            <mxPoint x="570" y="220" as="targetPoint" />
          </mxGeometry>
        </mxCell>
        <mxCell id="DRXv_Ftm8kYpAyk2VkBo-3" value="" style="verticalLabelPosition=bottom;verticalAlign=top;html=1;shape=mxgraph.basic.arc;startAngle=0.8212250161786258;endAngle=0.057455778522074466;fontFamily=Helvetica;fontSize=11;fontColor=#ffffff;fillColor=#0050ef;strokeColor=#001DBC;rotation=-30;" vertex="1" parent="1">
          <mxGeometry x="580" y="268" width="16" height="16" as="geometry" />
        </mxCell>
        <mxCell id="DRXv_Ftm8kYpAyk2VkBo-4" value="&lt;span style=&quot;color: rgb(0, 0, 0); font-family: Helvetica; font-size: 11px; font-style: normal; font-variant-ligatures: normal; font-variant-caps: normal; font-weight: 400; letter-spacing: normal; orphans: 2; text-align: center; text-indent: 0px; text-transform: none; widows: 2; word-spacing: 0px; -webkit-text-stroke-width: 0px; background-color: rgb(251, 251, 251); text-decoration-thickness: initial; text-decoration-style: initial; text-decoration-color: initial; float: none; display: inline !important;&quot;&gt;$$\alpha_{f}$$&lt;/span&gt;" style="text;whiteSpace=wrap;html=1;" vertex="1" parent="1">
          <mxGeometry x="535.98" y="255.75" width="20" height="37.5" as="geometry" />
        </mxCell>
        <mxCell id="DRXv_Ftm8kYpAyk2VkBo-6" value="$$F_{fx}$$" style="text;html=1;align=center;verticalAlign=middle;resizable=0;points=[];autosize=1;strokeColor=none;fillColor=none;" vertex="1" parent="1">
          <mxGeometry x="490" y="246.75" width="80" height="30" as="geometry" />
        </mxCell>
        <mxCell id="DRXv_Ftm8kYpAyk2VkBo-9" value="&lt;span style=&quot;color: rgb(0, 0, 0); font-family: Helvetica; font-size: 11px; font-style: normal; font-variant-ligatures: normal; font-variant-caps: normal; font-weight: 400; letter-spacing: normal; orphans: 2; text-align: center; text-indent: 0px; text-transform: none; widows: 2; word-spacing: 0px; -webkit-text-stroke-width: 0px; background-color: rgb(251, 251, 251); text-decoration-thickness: initial; text-decoration-style: initial; text-decoration-color: initial; float: none; display: inline !important;&quot;&gt;$$v_{f}$$&lt;/span&gt;" style="text;whiteSpace=wrap;html=1;" vertex="1" parent="1">
          <mxGeometry x="567.23" y="222" width="30" height="42" as="geometry" />
        </mxCell>
        <mxCell id="DRXv_Ftm8kYpAyk2VkBo-10" value="" style="endArrow=none;html=1;rounded=0;entryX=0.283;entryY=-0.018;entryDx=0;entryDy=0;entryPerimeter=0;" edge="1" parent="1" target="DRXv_Ftm8kYpAyk2VkBo-3">
          <mxGeometry width="50" height="50" relative="1" as="geometry">
            <mxPoint x="550" y="290" as="sourcePoint" />
            <mxPoint x="580" y="268" as="targetPoint" />
          </mxGeometry>
        </mxCell>
        <mxCell id="DRXv_Ftm8kYpAyk2VkBo-11" value="" style="endArrow=classic;html=1;rounded=0;strokeColor=#005700;fillColor=#008a00;exitX=0.505;exitY=0.406;exitDx=0;exitDy=0;exitPerimeter=0;" edge="1" parent="1" source="xx7SEzOR2n9m0VS-8ozK-95">
          <mxGeometry width="50" height="50" relative="1" as="geometry">
            <mxPoint x="650" y="460" as="sourcePoint" />
            <mxPoint x="666" y="340" as="targetPoint" />
          </mxGeometry>
        </mxCell>
        <mxCell id="DRXv_Ftm8kYpAyk2VkBo-12" value="" style="verticalLabelPosition=bottom;verticalAlign=top;html=1;shape=mxgraph.basic.arc;startAngle=0.7658627587152768;endAngle=0.9185356125265088;fontFamily=Helvetica;fontSize=11;fontColor=#ffffff;fillColor=#0050ef;strokeColor=#001DBC;rotation=30;" vertex="1" parent="1">
          <mxGeometry x="651.07" y="360.99" width="35.85" height="29.01" as="geometry" />
        </mxCell>
        <mxCell id="DRXv_Ftm8kYpAyk2VkBo-16" value="&lt;span style=&quot;color: rgb(0, 0, 0); font-family: Helvetica; font-size: 11px; font-style: normal; font-variant-ligatures: normal; font-variant-caps: normal; font-weight: 400; letter-spacing: normal; orphans: 2; text-align: center; text-indent: 0px; text-transform: none; widows: 2; word-spacing: 0px; -webkit-text-stroke-width: 0px; background-color: rgb(251, 251, 251); text-decoration-thickness: initial; text-decoration-style: initial; text-decoration-color: initial; float: none; display: inline !important;&quot;&gt;$$\alpha_{r}$$&lt;/span&gt;" style="text;whiteSpace=wrap;html=1;" vertex="1" parent="1">
          <mxGeometry x="651.07" y="327.5" width="20" height="37.5" as="geometry" />
        </mxCell>
        <mxCell id="DRXv_Ftm8kYpAyk2VkBo-19" value="&lt;span style=&quot;color: rgb(0, 0, 0); font-family: Helvetica; font-size: 11px; font-style: normal; font-variant-ligatures: normal; font-variant-caps: normal; font-weight: 400; letter-spacing: normal; orphans: 2; text-align: center; text-indent: 0px; text-transform: none; widows: 2; word-spacing: 0px; -webkit-text-stroke-width: 0px; background-color: rgb(251, 251, 251); text-decoration-thickness: initial; text-decoration-style: initial; text-decoration-color: initial; float: none; display: inline !important;&quot;&gt;$$v_{r}$$&lt;/span&gt;" style="text;whiteSpace=wrap;html=1;" vertex="1" parent="1">
          <mxGeometry x="672" y="327.5" width="30" height="42" as="geometry" />
        </mxCell>
      </root>
    </mxGraphModel>
  </diagram>
</mxfile>
